<?xml version="1.0" encoding="UTF-8" standalone="no"?> <svg xmlns="http://www.w3.org/2000/svg" viewBox="0 0 64 64"><g id="Layer_87" data-name="Layer 87"><path d="M59.84,17.77A4.28,4.28,0,0,0,56.36,16H15.89l-1.12-6A4.24,4.24,0,0,0,10.6,6.45h-6a1.25,1.25,0,1,0,0,2.5h6a1.76,1.76,0,0,1,1.72,1.43l6.94,37.7a1.25,1.25,0,0,0,1.23,1H23.3a5.47,5.47,0,1,0,10.06,3,5.51,5.51,0,0,0-.88-3h5.61a5.47,5.47,0,1,0,9.18,0H49a1.25,1.25,0,0,0,0-2.5H21.53l-.9-4.9H50.09a4.26,4.26,0,0,0,4-2.79l6.27-17.25A4.27,4.27,0,0,0,59.84,17.77Zm-29,34.31a3,3,0,1,1-3-3A3,3,0,0,1,30.86,52.08Zm14.79,0a3,3,0,1,1-3-3A3,3,0,0,1,45.65,52.08ZM58,20.81,51.73,38.05a1.75,1.75,0,0,1-1.64,1.15H20.17L16.35,18.46h40a1.72,1.72,0,0,1,1.43.74A1.74,1.74,0,0,1,58,20.81Z"/></g></svg>